<?xml version="1.0" encoding="UTF-8" standalone="no"?>
<!-- Created with Inkscape (http://www.inkscape.org/) -->

<svg
   width="210mm"
   height="100mm"
   viewBox="0 0 210 100"
   version="1.1"
   id="svg2088"
   inkscape:version="1.2.1 (9c6d41e410, 2022-07-14, custom)"
   sodipodi:docname="opendylan_dark.svg"
   inkscape:export-filename="opendylan_dark.png"
   inkscape:export-xdpi="123.855"
   inkscape:export-ydpi="123.855"
   xmlns:inkscape="http://www.inkscape.org/namespaces/inkscape"
   xmlns:sodipodi="http://sodipodi.sourceforge.net/DTD/sodipodi-0.dtd"
   xmlns="http://www.w3.org/2000/svg"
   xmlns:svg="http://www.w3.org/2000/svg">
  <sodipodi:namedview
     id="namedview2090"
     pagecolor="#505050"
     bordercolor="#eeeeee"
     borderopacity="1"
     inkscape:showpageshadow="0"
     inkscape:pageopacity="0"
     inkscape:pagecheckerboard="0"
     inkscape:deskcolor="#505050"
     inkscape:document-units="mm"
     showgrid="false"
     inkscape:zoom="0.81620935"
     inkscape:cx="419.62274"
     inkscape:cy="158.04769"
     inkscape:window-width="1920"
     inkscape:window-height="988"
     inkscape:window-x="0"
     inkscape:window-y="25"
     inkscape:window-maximized="1"
     inkscape:current-layer="layer1" />
  <defs
     id="defs2085" />
  <g
     inkscape:label="Layer 1"
     inkscape:groupmode="layer"
     id="layer1">
    <rect
       style="fill:#00323a;fill-opacity:1;stroke:none;stroke-width:60.7705;stroke-linecap:butt;stroke-linejoin:bevel;stroke-dasharray:none;stroke-opacity:1"
       id="rect3007"
       width="210"
       height="100.59627"
       x="-4.7683716e-06"
       y="-1.4210855e-14"
       ry="0" />
    <g
       id="g2811">
      <g
         id="g2790"
         style="fill:#eff3cf;fill-opacity:1">
        <g
           aria-label="open"
           id="text904"
           style="font-size:41.6468px;line-height:1.25;letter-spacing:0px;word-spacing:0px;stroke-width:1.04117">
          <path
             d="m 78.990267,14.141108 h 4.44898 c 1.055052,0 1.915752,0.05553 2.582101,0.166587 0.666349,0.08329 1.249404,0.291527 1.749166,0.624702 0.499761,0.333174 0.874582,0.707995 1.124463,1.124463 0.249881,0.388704 0.444233,1.027288 0.583056,1.915753 0.222116,1.249404 0.333174,2.99857 0.333174,5.247497 0,2.248927 -0.01388,3.775977 -0.04165,4.581148 -0.02777,0.777407 -0.0833,1.610343 -0.166587,2.498808 -0.05553,0.888465 -0.180467,1.540932 -0.374821,1.9574 -0.166587,0.416468 -0.402586,0.846818 -0.707996,1.291051 -0.277645,0.416468 -0.652466,0.707996 -1.124463,0.874583 -1.027288,0.360939 -2.346103,0.541408 -3.956446,0.541408 h -0.08329 V 19.263664 18.763902 c 0,-0.277645 -0.01388,-0.513644 -0.04165,-0.707995 -0.138823,-0.527526 -0.694113,-0.791289 -1.665872,-0.791289 h -2.658167 z m -0.840164,0 v 15.700844 0.499761 c 0,0.277645 0.02776,0.513644 0.08329,0.707996 0.111059,0.527526 0.652467,0.791289 1.624226,0.791289 l 2.712654,0 v 3.12351 h -4.503467 c -1.055052,0 -1.915752,-0.04165 -2.582101,-0.12494 -0.666349,-0.111059 -1.249405,-0.333175 -1.749166,-0.666349 -0.499762,-0.333175 -0.874583,-0.694114 -1.124464,-1.082817 -0.249881,-0.416468 -0.458115,-1.068935 -0.624702,-1.9574 -0.194351,-1.249404 -0.291527,-2.99857 -0.291527,-5.247497 0,-2.248927 0.01388,-3.762094 0.04165,-4.539501 0.02777,-0.805171 0.06941,-1.65199 0.124941,-2.540455 0.08329,-0.888465 0.208234,-1.540931 0.374821,-1.957399 0.194352,-0.416468 0.430351,-0.832936 0.707996,-1.249404 0.30541,-0.444233 0.694113,-0.749643 1.16611,-0.91623 1.027288,-0.360939 2.346103,-0.541408 3.956446,-0.541408 z"
             style="font-family:'Keania One';-inkscape-font-specification:'Keania One'"
             id="path5862"
             sodipodi:nodetypes="cscsccscccccsccscsccccscsccscsccscccccsc" />
          <path
             d="m 101.39627,14.141108 h 4.44898 c 2.74869,0 4.44233,0.471997 5.08091,1.415991 0.30541,0.444233 0.54141,0.874583 0.708,1.291051 0.19435,0.416468 0.31929,1.068934 0.37482,1.957399 0.13882,1.610343 0.20823,3.401156 0.20823,5.372438 0,1.971281 -0.0139,3.401155 -0.0416,4.28962 -0.0277,0.860701 -0.12491,1.749166 -0.29153,2.665395 -0.13883,0.888465 -0.33318,1.540932 -0.58306,1.9574 -0.24988,0.388703 -0.6247,0.749642 -1.12446,1.082817 -0.49976,0.333174 -1.08282,0.55529 -1.74917,0.666349 -0.66635,0.08329 -1.52705,0.12494 -2.5821,0.12494 h -4.44898 v -3.12351 h 2.65817 c 0.72188,0 1.17999,-0.09718 1.37434,-0.291528 0.22212,-0.194351 0.33318,-0.499761 0.33318,-0.916229 V 18.514022 c 0,-0.444233 -0.11106,-0.763525 -0.33318,-0.957877 -0.19435,-0.194351 -0.65246,-0.291527 -1.37434,-0.291527 h -2.65817 z m -0.84016,30.110637 h -2.540456 c -1.22164,0 -2.151752,-0.30541 -2.790336,-0.91623 -0.61082,-0.583055 -0.91623,-1.34658 -0.91623,-2.290574 v -23.69703 c 0,-0.943994 0.30541,-1.707519 0.91623,-2.290574 0.638584,-0.610819 1.568696,-0.916229 2.790336,-0.916229 h 2.540456 z"
             style="font-family:'Keania One';-inkscape-font-specification:'Keania One'"
             id="path5864"
             sodipodi:nodetypes="cscccscccscsccscsscscccscsscscc" />
          <path
             d="m 122.92044,34.964508 h -0.0833 c -2.74869,0 -4.44232,-0.471997 -5.08091,-1.415991 -0.30541,-0.444233 -0.55529,-0.874583 -0.74964,-1.291051 -0.16659,-0.416468 -0.27765,-1.068935 -0.33318,-1.9574 -0.13882,-1.610343 -0.20823,-3.401155 -0.20823,-5.372437 0,-1.971282 0.0139,-3.387273 0.0416,-4.247974 0.0277,-0.888465 0.11103,-1.77693 0.24988,-2.665395 0.16659,-0.916229 0.37482,-1.568696 0.6247,-1.9574 0.24988,-0.416468 0.6247,-0.791289 1.12446,-1.124463 0.49976,-0.333175 1.08282,-0.541409 1.74917,-0.624702 0.66635,-0.111058 1.52705,-0.166587 2.5821,-0.166587 h 0.0833 z m 11.07805,-6.580195 V 30.5083 c 0,2.970805 -1.51317,4.456208 -4.5395,4.456208 h -5.65674 v -3.12351 h 2.65817 c 0.58305,0 0.94399,-0.08329 1.08282,-0.249881 0.13882,-0.194351 0.20823,-0.527526 0.20823,-0.999523 v -1.332698 c 0,-0.416468 0.0417,-0.652466 0.12494,-0.707995 0.11106,-0.05553 0.18047,-0.08329 0.20824,-0.08329 0.0277,-0.02777 0.0971,-0.04165 0.20823,-0.04165 0.13882,-0.02777 0.236,-0.04165 0.29153,-0.04165 h 5.41408 z M 123.80225,14.141108 h 5.24027 c 1.91575,0 3.22069,0.374821 3.9148,1.124463 0.69411,0.749643 1.04117,1.860224 1.04117,3.331744 v 3.664919 c 0,2.498808 -1.36046,3.748212 -4.08138,3.748212 h -6.53132 v -3.12351 h 2.65816 c 0.66635,0 1.11059,-0.08329 1.3327,-0.249881 0.24988,-0.166587 0.37482,-0.485879 0.37482,-0.957876 v -3.165157 c 0,-0.471997 -0.0694,-0.79129 -0.20823,-0.957877 -0.13883,-0.194351 -0.49977,-0.291527 -1.08282,-0.291527 h -2.65817 z"
             style="font-family:'Keania One';-inkscape-font-specification:'Keania One'"
             id="path5866"
             sodipodi:nodetypes="cscccscccscscccssccscsscccscccsssssccscsscscc" />
          <path
             d="m 145.29202,14.141108 h 6.2398 c 3.02633,0 4.5395,1.485402 4.5395,4.456207 v 16.367193 h -4.74774 c -0.44423,0 -0.80517,-0.152705 -1.08282,-0.458115 -0.27764,-0.30541 -0.41646,-0.707996 -0.41646,-1.207757 V 18.514022 c 0,-0.444233 -0.11106,-0.763525 -0.33318,-0.957877 -0.19435,-0.194351 -0.65247,-0.291527 -1.37434,-0.291527 h -2.82476 z m -6.87895,0 h 2.54046 c 1.22164,0 2.13787,0.30541 2.74869,0.916229 0.63858,0.583055 0.95787,1.34658 0.95787,2.290574 v 17.616597 h -4.74773 c -0.44423,0 -0.80517,-0.152705 -1.08282,-0.458115 -0.27765,-0.30541 -0.41647,-0.707996 -0.41647,-1.207757 z"
             style="font-family:'Keania One';-inkscape-font-specification:'Keania One'"
             id="path5868"
             sodipodi:nodetypes="csscsssscscccscscsssc" />
        </g>
        <g
           aria-label="Dylan"
           id="text962"
           style="font-size:41.6468px;line-height:1.25;letter-spacing:0px;word-spacing:0px;stroke-width:1.04117">
          <path
             d="m 122.21127,51.884347 0.0416,7.03831 c 0,3.303979 -0.41647,5.483495 -1.2494,6.538548 -0.83293,1.027287 -2.3461,1.540931 -4.5395,1.540931 h -6.53132 V 63.04569 h 3.4911 c 0.69411,0 1.15223,-0.08329 1.37435,-0.249881 0.22211,-0.166587 0.33317,-0.485879 0.33317,-0.957876 V 42.097349 c 0,-0.499761 -0.11106,-0.832936 -0.33317,-0.999523 -0.22212,-0.166587 -0.68024,-0.249881 -1.37435,-0.249881 h -3.4911 v -3.956446 h 6.94779 c 2.02681,0 3.42891,0.471997 4.20632,1.415991 0.80517,0.91623 1.20776,2.720925 1.20776,5.414084 z m -13.11874,15.159436 h -4.37292 c -0.91623,0 -1.52705,-0.152705 -1.83246,-0.458115 -0.30541,-0.333174 -0.45811,-0.971758 -0.45811,-1.915753 V 39.265367 c 0,-0.943994 0.1527,-1.568696 0.45811,-1.874106 0.30541,-0.333175 0.91623,-0.499762 1.83246,-0.499762 h 4.37292 z"
             style="font-family:'Keania One';-inkscape-font-specification:'Keania One'"
             id="path5871"
             sodipodi:nodetypes="cccsccssssssccsccccscsscscc" />
          <path
             d="m 127.41711,46.178736 h 4.74773 c 0.44423,0 0.80517,0.152705 1.08282,0.458115 0.27765,0.305409 0.41647,0.707995 0.41647,1.207757 v 14.784614 c 0,0.444233 0.0972,0.763525 0.29153,0.957877 0.22211,0.194351 0.69411,0.291527 1.41599,0.291527 l 2.71266,0 v 3.12351 h -6.1277 c -3.02633,0 -4.5395,-1.485402 -4.5395,-4.456207 z m 6.66349,23.488795 v 2.207281 c 0,0.471997 0.0694,0.791289 0.20823,0.957876 0.13883,0.194352 0.49977,0.291528 1.08282,0.291528 h 2.71266 v 3.12351 h -5.71123 c -3.02633,0 -4.5395,-1.485403 -4.5395,-4.456208 v -1.249404 c 0,-0.416468 0.0417,-0.652466 0.12494,-0.707995 0.11105,-0.05553 0.18046,-0.09717 0.20823,-0.124941 0.0278,0 0.0972,-0.01388 0.20824,-0.04165 h 0.29152 5.41409 z m 4.78938,-23.488795 h 2.54045 c 1.22164,0 2.13787,0.30541 2.74869,0.916229 0.63859,0.583055 0.95788,1.34658 0.95788,2.290574 v 23.69703 c 0,0.943994 -0.31929,1.707519 -0.95788,2.290574 -0.61082,0.61082 -1.52705,0.91623 -2.74869,0.91623 h -2.54045 z"
             style="font-family:'Keania One';-inkscape-font-specification:'Keania One'"
             id="path5873"
             sodipodi:nodetypes="csssscsccssccscsccssscccccccscsscscc" />
          <path
             d="m 158.77715,66.710609 q 0,0.291527 -0.20823,0.291527 h -4.20633 q -2.33222,0 -3.45668,-1.082817 -1.08282,-1.082816 -1.08282,-3.539978 V 36.933146 h 2.54046 q 1.83246,0 2.74869,0.91623 0.95787,0.874582 0.95787,2.290574 v 22.156098 q 0,1.291051 0.54141,1.457638 0.29153,0.12494 0.79129,0.12494 h 1.04117 q 0.33317,0 0.33317,0.291528 z"
             style="font-family:'Keania One';-inkscape-font-specification:'Keania One'"
             id="path5875" />
          <path
             d="m 172.23467,49.302246 -2.71266,0 c -0.8607,0 -1.34658,0.152705 -1.45764,0.458115 -0.16659,0.360939 -0.24988,0.874582 -0.24988,1.540931 v 10.578288 0.499761 c 0,0.277645 0.0278,0.513644 0.0833,0.707996 0.11105,0.527526 0.65246,0.791289 1.62422,0.791289 h 2.71266 v 3.12351 h -4.50347 c -1.05505,0 -1.91575,-0.04165 -2.5821,-0.12494 -0.66635,-0.111058 -1.24941,-0.333174 -1.74917,-0.666349 -0.49976,-0.333175 -0.87458,-0.694114 -1.12446,-1.082817 -0.24988,-0.416468 -0.45811,-1.068934 -0.6247,-1.957399 -0.19435,-1.249405 -0.29153,-2.99857 -0.29153,-5.247497 0,-2.248927 0.0139,-3.762095 0.0417,-4.539502 0.0277,-0.805171 0.0694,-1.65199 0.12494,-2.540455 0.0833,-0.888465 0.20823,-1.540931 0.37482,-1.957399 0.19435,-0.416468 0.43035,-0.832936 0.70799,-1.249404 0.30541,-0.444233 0.69412,-0.749643 1.16611,-0.91623 1.02729,-0.360939 2.34611,-0.541408 3.95645,-0.541408 l 4.50347,0 z m 8.9068,17.408363 c 0,0.194351 -0.0555,0.291527 -0.16659,0.291527 h -3.41504 c -1.55481,0 -2.70704,-0.360939 -3.45668,-1.082817 -0.72188,-0.721877 -1.08282,-1.90187 -1.08282,-3.539978 V 46.178736 h 1.70752 c 1.74917,0 2.94304,0.416468 3.58163,1.249404 0.63858,0.805171 0.95787,1.874106 0.95787,3.206803 v 11.661105 c 0,0.860701 0.18047,1.34658 0.54141,1.457638 0.19435,0.08329 0.45812,0.12494 0.79129,0.12494 h 0.20824 c 0.22211,0 0.33317,0.09718 0.33317,0.291528 z"
             style="font-family:'Keania One';-inkscape-font-specification:'Keania One'"
             id="path5877"
             sodipodi:nodetypes="cscscscsccscsccscccccsccssscscscsscssss" />
          <path
             d="m 191.31056,46.178736 h 6.23979 c 3.02633,0 4.5395,1.485402 4.5395,4.456207 v 16.367193 h -4.74774 c -0.44423,0 -0.80517,-0.152705 -1.08281,-0.458115 -0.27765,-0.305409 -0.41647,-0.707995 -0.41647,-1.207757 V 50.55165 c 0,-0.444233 -0.11106,-0.763525 -0.33318,-0.957877 -0.19435,-0.194351 -0.65246,-0.291527 -1.37434,-0.291527 h -2.82475 z m -6.87896,0 h 2.54046 c 1.22164,0 2.13787,0.30541 2.74869,0.916229 0.63858,0.583055 0.95787,1.34658 0.95787,2.290574 v 17.616597 h -4.74773 c -0.44423,0 -0.80517,-0.152705 -1.08282,-0.458115 -0.27765,-0.305409 -0.41647,-0.707995 -0.41647,-1.207757 z"
             style="font-family:'Keania One';-inkscape-font-specification:'Keania One'"
             id="path5879"
             sodipodi:nodetypes="csscsssscscccscscsssc" />
        </g>
      </g>
      <g
         id="g2784">
        <rect
           style="fill:#f0476a;fill-opacity:1;stroke:none;stroke-width:1.85208;stroke-linecap:round;stroke-linejoin:bevel;stroke-opacity:1"
           id="rect3067"
           width="37.4203"
           height="37.4203"
           x="39.340904"
           y="-5.0882015"
           ry="4.6349134"
           transform="rotate(45)" />
        <rect
           style="fill:#ea8d2f;fill-opacity:1;stroke:none;stroke-width:1.85208;stroke-linecap:round;stroke-linejoin:bevel;stroke-opacity:1"
           id="rect3069"
           width="21.85153"
           height="21.851534"
           x="80.613998"
           y="10.480571"
           ry="4.6349134"
           transform="rotate(45)" />
        <rect
           style="fill:#f0476a;fill-opacity:1;stroke:none;stroke-width:1.85208;stroke-linecap:round;stroke-linejoin:bevel;stroke-opacity:1"
           id="rect3071"
           width="30.462337"
           height="30.462349"
           x="80.613998"
           y="-23.834642"
           ry="4.6349134"
           transform="rotate(45)" />
        <rect
           style="fill:#ea8722;fill-opacity:1;stroke:none;stroke-width:1.85208;stroke-linecap:round;stroke-linejoin:bevel;stroke-opacity:1"
           id="rect3073"
           width="21.85153"
           height="21.851534"
           x="39.340904"
           y="-30.792536"
           ry="4.6349134"
           transform="rotate(45)" />
        <path
           id="path3075"
           style="fill:#c32f7a;fill-opacity:1;stroke:none;stroke-width:1.85208;stroke-linecap:round;stroke-linejoin:bevel;stroke-opacity:1"
           d="m 77.87906,54.785595 c -1.81567,-1.81567 -4.73902,-1.81567 -6.55468,0 l -12.95589,12.95589 12.21046,12.21046 c 1.81566,1.81566 4.73901,1.81566 6.55468,0 l 12.95589,-12.95589 z" />
        <rect
           style="fill:#8a0b8f;fill-opacity:1;stroke:none;stroke-width:1.85208;stroke-linecap:round;stroke-linejoin:bevel;stroke-opacity:1"
           id="rect3077"
           width="11.01911"
           height="11.019113"
           x="82.985107"
           y="-21.130121"
           ry="2.7272613"
           rx="2.7272613"
           transform="rotate(45)" />
        <path
           id="path3079"
           style="fill:#e36e12;fill-opacity:1;stroke:none;stroke-width:1.85208;stroke-linecap:round;stroke-linejoin:bevel;stroke-opacity:1"
           d="m 46.74096,67.314945 c -0.14756,0.11567 -0.29038,0.23995 -0.42643,0.37601 l -2.96638,2.96637 7.21862,7.21863 -9.20753,9.20754 1.819,1.819 1.54859,1.54859 c 0.14741,-0.11557 0.2905,-0.24007 0.42644,-0.376 l 8.89657,-8.89657 c 1.81567,-1.81567 1.81567,-4.73902 0,-6.55468 z" />
        <path
           id="path3081"
           style="fill:#c32f7a;fill-opacity:1;stroke:none;stroke-width:1.85208;stroke-linecap:round;stroke-linejoin:bevel;stroke-opacity:1"
           d="m 25.42929,30.207443 -3.3676,3.367592 13.82813,13.82813 c 1.81566,1.81566 1.81566,4.73901 0,6.55468 l -13.82812,13.82811 3.3676,3.3676 17.19571,-17.19571 c 1.81566,-1.81567 1.81566,-4.73902 0,-6.55468 z" />
        <rect
           style="fill:#8a0b8f;fill-opacity:1;stroke:none;stroke-width:2.24144;stroke-linecap:round;stroke-linejoin:bevel;stroke-opacity:1"
           id="rect3083"
           width="13.276439"
           height="13.395161"
           x="58.97541"
           y="-0.89393407"
           ry="3.3153398"
           rx="3.2859569"
           transform="rotate(45)" />
        <rect
           style="fill:#ea8d2f;fill-opacity:1;stroke:none;stroke-width:1.85208;stroke-linecap:round;stroke-linejoin:bevel;stroke-opacity:1"
           id="rect3085"
           width="21.85153"
           height="21.851534"
           x="39.340904"
           y="-30.792536"
           ry="4.6349134"
           transform="rotate(45)" />
        <path
           id="path3087"
           style="fill:#e36e12;fill-opacity:1;stroke:none;stroke-width:1.85208;stroke-linecap:round;stroke-linejoin:bevel"
           d="m 51.47006,14.477745 c -1.0406,-1.040606 -2.71578,-1.04061 -3.75639,0 l -10.29572,10.295723 8.89658,8.896577 c 1.81567,1.81567 4.73901,1.81567 6.55468,0 l 8.89658,-8.896575 z" />
      </g>
      <text
         xml:space="preserve"
         style="font-style:normal;font-weight:normal;font-size:8.36497px;line-height:1.25;font-family:sans-serif;letter-spacing:-0.264583px;word-spacing:0px;fill:#eff3cf;fill-opacity:1;stroke:none;stroke-width:2.05733"
         x="80.68161"
         y="82.51268"
         id="text4244"><tspan
           sodipodi:role="line"
           style="font-style:normal;font-variant:normal;font-weight:bold;font-stretch:normal;font-family:Oxanium;-inkscape-font-specification:'Oxanium Bold';baseline-shift:baseline;fill:#eff3cf;fill-opacity:1;stroke-width:2.05733"
           x="80.68161"
           y="82.51268"
           id="tspan4242">dynamic Programming Language</tspan></text>
    </g>
  </g>
</svg>
