<?xml version="1.0" encoding="UTF-8" standalone="no"?>
<!-- Created with Inkscape (http://www.inkscape.org/) -->

<svg
   width="100mm"
   height="100mm"
   viewBox="0 0 100 100"
   version="1.1"
   id="svg2088"
   inkscape:version="1.2.1 (9c6d41e410, 2022-07-14, custom)"
   sodipodi:docname="opendylan_light_logo.svg"
   inkscape:export-filename="opendylan_light_transoarent.png"
   inkscape:export-xdpi="123.855"
   inkscape:export-ydpi="123.855"
   xmlns:inkscape="http://www.inkscape.org/namespaces/inkscape"
   xmlns:sodipodi="http://sodipodi.sourceforge.net/DTD/sodipodi-0.dtd"
   xmlns="http://www.w3.org/2000/svg"
   xmlns:svg="http://www.w3.org/2000/svg">
  <sodipodi:namedview
     id="namedview2090"
     pagecolor="#505050"
     bordercolor="#eeeeee"
     borderopacity="1"
     inkscape:showpageshadow="0"
     inkscape:pageopacity="0"
     inkscape:pagecheckerboard="0"
     inkscape:deskcolor="#505050"
     inkscape:document-units="mm"
     showgrid="false"
     inkscape:zoom="1.0410784"
     inkscape:cx="259.82673"
     inkscape:cy="105.65967"
     inkscape:window-width="1920"
     inkscape:window-height="988"
     inkscape:window-x="0"
     inkscape:window-y="25"
     inkscape:window-maximized="1"
     inkscape:current-layer="layer1" />
  <defs
     id="defs2085" />
  <g
     inkscape:label="Layer 1"
     inkscape:groupmode="layer"
     id="layer1">
    <rect
       style="fill:#ffffff;fill-opacity:1;stroke:none;stroke-width:41.8111;stroke-linecap:butt;stroke-linejoin:bevel;stroke-dasharray:none;stroke-opacity:1"
       id="rect3307"
       width="100"
       height="100"
       x="0"
       y="0"
       ry="0" />
    <g
       id="g2811">
      <g
         id="g2784">
        <rect
           style="fill:#fa4d70;fill-opacity:1;stroke:none;stroke-width:1.85208;stroke-linecap:round;stroke-linejoin:bevel;stroke-opacity:1"
           id="rect3067"
           width="37.4203"
           height="37.4203"
           x="39.340904"
           y="-5.0882015"
           ry="4.6349134"
           transform="rotate(45)" />
        <rect
           style="fill:#ff9d1d;fill-opacity:1;stroke:none;stroke-width:1.85208;stroke-linecap:round;stroke-linejoin:bevel;stroke-opacity:1"
           id="rect3069"
           width="21.85153"
           height="21.851534"
           x="80.613998"
           y="10.480571"
           ry="4.6349134"
           transform="rotate(45)" />
        <rect
           style="fill:#fa4d70;fill-opacity:1;stroke:none;stroke-width:1.85208;stroke-linecap:round;stroke-linejoin:bevel;stroke-opacity:1"
           id="rect3071"
           width="30.462337"
           height="30.462349"
           x="80.613998"
           y="-23.834642"
           ry="4.6349134"
           transform="rotate(45)" />
        <rect
           style="fill:#ea8722;fill-opacity:1;stroke:none;stroke-width:1.85208;stroke-linecap:round;stroke-linejoin:bevel;stroke-opacity:1"
           id="rect3073"
           width="21.85153"
           height="21.851534"
           x="39.340904"
           y="-30.792536"
           ry="4.6349134"
           transform="rotate(45)" />
        <path
           id="path3075"
           style="fill:#c5176f;fill-opacity:1;stroke:none;stroke-width:1.85208;stroke-linecap:round;stroke-linejoin:bevel;stroke-opacity:1"
           d="m 77.87906,54.785595 c -1.81567,-1.81567 -4.73902,-1.81567 -6.55468,0 l -12.95589,12.95589 12.21046,12.21046 c 1.81566,1.81566 4.73901,1.81566 6.55468,0 l 12.95589,-12.95589 z" />
        <rect
           style="fill:#8a0b8f;fill-opacity:1;stroke:none;stroke-width:1.85208;stroke-linecap:round;stroke-linejoin:bevel;stroke-opacity:1"
           id="rect3077"
           width="11.01911"
           height="11.019113"
           x="82.985107"
           y="-21.130121"
           ry="2.7272613"
           rx="2.7272613"
           transform="rotate(45)" />
        <path
           id="path3079"
           style="fill:#ee7f0c;fill-opacity:1;stroke:none;stroke-width:1.85208;stroke-linecap:round;stroke-linejoin:bevel;stroke-opacity:1"
           d="m 46.74096,67.314945 c -0.14756,0.11567 -0.29038,0.23995 -0.42643,0.37601 l -2.96638,2.96637 7.21862,7.21863 -9.20753,9.20754 1.819,1.819 1.54859,1.54859 c 0.14741,-0.11557 0.2905,-0.24007 0.42644,-0.376 l 8.89657,-8.89657 c 1.81567,-1.81567 1.81567,-4.73902 0,-6.55468 z" />
        <path
           id="path3081"
           style="fill:#c5176f;fill-opacity:1;stroke:none;stroke-width:1.85208;stroke-linecap:round;stroke-linejoin:bevel;stroke-opacity:1"
           d="m 25.42929,30.207443 -3.3676,3.367592 13.82813,13.82813 c 1.81566,1.81566 1.81566,4.73901 0,6.55468 l -13.82812,13.82811 3.3676,3.3676 17.19571,-17.19571 c 1.81566,-1.81567 1.81566,-4.73902 0,-6.55468 z" />
        <rect
           style="fill:#8a0b8f;fill-opacity:1;stroke:none;stroke-width:2.24144;stroke-linecap:round;stroke-linejoin:bevel;stroke-opacity:1"
           id="rect3083"
           width="13.276439"
           height="13.395161"
           x="58.97541"
           y="-0.89393407"
           ry="3.3153398"
           rx="3.2859569"
           transform="rotate(45)" />
        <rect
           style="fill:#ff9d1d;fill-opacity:1;stroke:none;stroke-width:1.85208;stroke-linecap:round;stroke-linejoin:bevel;stroke-opacity:1"
           id="rect3085"
           width="21.85153"
           height="21.851534"
           x="39.340904"
           y="-30.792536"
           ry="4.6349134"
           transform="rotate(45)" />
        <path
           id="path3087"
           style="fill:#ee7f0c;fill-opacity:1;stroke:none;stroke-width:1.85208;stroke-linecap:round;stroke-linejoin:bevel"
           d="m 51.47006,14.477745 c -1.0406,-1.040606 -2.71578,-1.04061 -3.75639,0 l -10.29572,10.295723 8.89658,8.896577 c 1.81567,1.81567 4.73901,1.81567 6.55468,0 l 8.89658,-8.896575 z" />
      </g>
    </g>
  </g>
</svg>
