<?xml version="1.0" encoding="UTF-8" standalone="no"?>
<!-- Created with Inkscape (http://www.inkscape.org/) -->

<svg
   width="210mm"
   height="100mm"
   viewBox="0 0 210 100"
   version="1.1"
   id="svg2088"
   inkscape:version="1.2.1 (9c6d41e410, 2022-07-14, custom)"
   sodipodi:docname="opendylan_minimal_light.svg"
   inkscape:export-filename="opendylan_minimal_light_transparentt.png"
   inkscape:export-xdpi="122"
   inkscape:export-ydpi="122"
   xml:space="preserve"
   xmlns:inkscape="http://www.inkscape.org/namespaces/inkscape"
   xmlns:sodipodi="http://sodipodi.sourceforge.net/DTD/sodipodi-0.dtd"
   xmlns:xlink="http://www.w3.org/1999/xlink"
   xmlns="http://www.w3.org/2000/svg"
   xmlns:svg="http://www.w3.org/2000/svg"><sodipodi:namedview
     id="namedview2090"
     pagecolor="#505050"
     bordercolor="#eeeeee"
     borderopacity="1"
     inkscape:showpageshadow="0"
     inkscape:pageopacity="0"
     inkscape:pagecheckerboard="0"
     inkscape:deskcolor="#505050"
     inkscape:document-units="mm"
     showgrid="false"
     inkscape:zoom="3.385954"
     inkscape:cx="465.74762"
     inkscape:cy="169.22852"
     inkscape:window-width="3840"
     inkscape:window-height="2054"
     inkscape:window-x="0"
     inkscape:window-y="39"
     inkscape:window-maximized="1"
     inkscape:current-layer="g5479" /><defs
     id="defs2085" /><g
     inkscape:label="Layer 1"
     inkscape:groupmode="layer"
     id="layer1"><image
       width="106.59673"
       height="53.714752"
       preserveAspectRatio="none"
       xlink:href="../../opendylan%20logo%20big_gap/minimal/opendylan_minimal_light_transparent.png"
       id="image3777"
       x="51.701633"
       y="23.142624" /><rect
       style="fill:#ffffff;fill-opacity:1;stroke:none;stroke-width:60.7705;stroke-linecap:butt;stroke-linejoin:bevel;stroke-dasharray:none;stroke-opacity:1"
       id="rect3007"
       width="210"
       height="100.59627"
       x="-4.7683716e-06"
       y="-1.4210855e-14"
       ry="0" /><g
       id="g5479"
       transform="translate(1.4240748,-0.17890796)"><g
         id="g5743"
         transform="matrix(1.0249764,0,0,1.0249764,-1.3871038,-1.2532823)"><path
           id="path5544"
           style="color:#000000;fill:#00323a;stroke-width:0.897453;stroke-linecap:round;stroke-linejoin:bevel;-inkscape-stroke:none"
           d="m 68.681724,37.840692 c -0.68972,0 -1.37923,0.262498 -1.904277,0.787549 l -9.645406,9.645406 c -1.050099,1.050099 -1.05163,2.760521 -0.0016,3.81062 l 9.645406,9.645406 c 1.050099,1.050099 2.761554,1.050099 3.811653,0 l 9.645406,-9.645406 c 1.050098,-1.050099 1.049084,-2.760521 -0.001,-3.81062 L 70.586517,38.628241 C 70.061466,38.10319 69.37144,37.840692 68.681724,37.840692 Z m -2.934705,3.086116 5.987748,6.063196 -1.601452,1.601453 c -0.833592,0.83359 -0.839938,2.198624 -0.0083,3.030306 l 1.61954,1.619022 -5.998601,6.188253 -7.979874,-7.979875 c -0.709514,-0.709509 -0.709514,-1.831936 0,-2.541446 z m 8.224304,5.794995 c 0.268126,-0.0013 0.535203,0.102688 0.743107,0.310576 l 2.296501,2.2965 c 0.415808,0.41581 0.415787,1.067877 -0.0093,1.492933 l -2.319238,2.318721 c -0.425057,0.425057 -1.077124,0.425594 -1.492932,0.0098 L 72.500097,52.460969 70.89296,50.853832 c -0.02599,-0.02599 -0.05013,-0.05289 -0.07286,-0.08062 -0.02273,-0.02772 -0.04409,-0.05604 -0.06356,-0.08527 -0.01947,-0.02923 -0.03753,-0.05941 -0.05374,-0.08992 -0.01621,-0.03051 -0.03046,-0.06146 -0.04341,-0.09302 -0.01295,-0.03156 -0.02443,-0.06373 -0.03411,-0.09612 -0.0097,-0.03239 -0.01737,-0.06519 -0.02377,-0.09819 -0.0064,-0.03299 -0.01135,-0.06637 -0.01447,-0.09974 -0.0031,-0.03337 -0.0048,-0.06674 -0.0047,-0.100252 1.62e-4,-0.03352 0.0022,-0.06681 0.0057,-0.100252 0.0034,-0.03344 0.0082,-0.06712 0.01499,-0.100253 0.0067,-0.03313 0.01529,-0.0661 0.02532,-0.0987 0.01003,-0.03261 0.02181,-0.06478 0.03514,-0.09663 0.01333,-0.03185 0.02832,-0.06318 0.04496,-0.09405 0.01664,-0.03087 0.03484,-0.06129 0.05478,-0.09095 0.01994,-0.02966 0.04134,-0.05859 0.0646,-0.08682 0.02325,-0.02823 0.04836,-0.0556 0.07493,-0.08216 l 1.596801,-1.596802 0.72192,-0.72192 c 0.212528,-0.212526 0.4817,-0.319129 0.749825,-0.320394 z" /><path
           id="path5582"
           style="color:#000000;fill:#00323a;stroke-linecap:round;stroke-linejoin:bevel;-inkscape-stroke:none"
           d="m 77.488938,57.316506 c -0.690411,0 -1.380776,0.262498 -1.905827,0.787548 l -4.310331,4.310332 c -1.050102,1.050102 -1.050101,2.762069 0,3.81217 l 4.310331,4.310331 c 1.050095,1.050095 2.761552,1.050102 3.811654,0 l 4.310331,-4.310331 c 1.050101,-1.050101 1.050095,-2.762075 0,-3.81217 l -4.310331,-4.310332 c -0.525051,-0.52505 -1.215417,-0.787549 -1.905827,-0.787548 z m 0,0.890901 c 0.457912,0 0.915967,0.177511 1.270723,0.532268 l 4.310332,4.310331 c 0.70951,0.70951 0.710521,1.832967 0.001,2.54248 l -4.310331,4.310331 c -0.709513,0.709514 -1.83297,0.707984 -2.542481,-0.0015 l -0.438732,-0.438733 4.187341,-4.187341 c 1.05008,-1.0501 1.050083,-2.762082 0,-3.81217 l -3.131592,-3.130559 c 0.210145,-0.08329 0.431826,-0.125057 0.653707,-0.125057 z m -3.024622,2.286166 2.861841,2.863908 -3.825606,3.826123 -1.592668,-1.592668 c -0.709513,-0.709513 -0.709513,-1.831416 0,-2.54093 z" /><path
           id="path5568"
           style="color:#000000;fill:#00323a;stroke-width:0.897453;stroke-linecap:round;stroke-linejoin:bevel;-inkscape-stroke:none"
           d="m 89.246877,45.559084 c -0.690066,-3.48e-4 -1.38026,0.261991 -1.905311,0.787032 l -7.261572,7.261572 c -1.050098,1.050098 -1.050097,2.761555 0,3.811654 l 7.261572,7.261572 c 1.050099,1.050099 2.760006,1.048568 3.810104,-0.0015 l 7.262089,-7.261573 c 1.050099,-1.050099 1.050099,-2.75897 0,-3.809069 L 91.15167,46.347149 c -0.525051,-0.525047 -1.214731,-0.787718 -1.904793,-0.788065 z m -0.114205,2.246891 c 0.221817,0 0.443833,0.08727 0.617533,0.260966 l 1.905827,1.905827 c 0.3474,0.3474 0.347398,0.88715 0,1.23455 L 90.6039,52.25945 89.750205,53.113145 c -0.02171,0.02171 -0.04406,0.04198 -0.06718,0.06098 -0.02312,0.019 -0.04697,0.03694 -0.07131,0.05323 -0.02434,0.01628 -0.04904,0.03087 -0.07441,0.04444 -0.02538,0.01357 -0.05129,0.02583 -0.07752,0.03669 -0.02622,0.01086 -0.05322,0.02028 -0.0801,0.02842 -0.02688,0.0081 -0.05378,0.01524 -0.08113,0.02067 -0.02735,0.0054 -0.05505,0.0092 -0.08268,0.01189 -0.02763,0.0027 -0.05496,0.0041 -0.08268,0.0041 -0.02772,0 -0.05557,-0.0014 -0.0832,-0.0041 -0.02763,-0.0027 -0.05533,-0.0065 -0.08268,-0.01189 -0.02735,-0.0054 -0.05425,-0.01253 -0.08113,-0.02067 -0.02688,-0.0081 -0.05388,-0.01757 -0.0801,-0.02842 -0.02622,-0.01086 -0.05214,-0.02312 -0.07752,-0.03669 -0.02537,-0.01357 -0.05007,-0.02816 -0.07441,-0.04444 -0.02434,-0.01629 -0.04819,-0.03423 -0.07131,-0.05323 -0.02312,-0.019 -0.04547,-0.03927 -0.06718,-0.06098 l -0.402559,-0.402043 -1.503785,-1.503784 c -0.347398,-0.3474 -0.347397,-0.887153 0,-1.23455 l 1.906344,-1.905827 c 0.1737,-0.1737 0.395198,-0.260966 0.617017,-0.260966 z m 2.130619,5.06429 5.215185,5.213636 -5.960876,5.960876 c -0.709513,0.709516 -1.831419,0.709515 -2.54093,0 l -5.599658,-5.599658 5.10098,-5.098914 0.402043,0.402043 c 0.687992,0.687992 1.817287,0.687986 2.505273,0 z" /><path
           id="path5556"
           style="color:#000000;fill:#00323a;stroke-width:0.897453;stroke-linecap:round;stroke-linejoin:bevel;-inkscape-stroke:none"
           d="m 77.489455,29.032961 c -0.690066,3.47e-4 -1.379743,0.263523 -1.904794,0.788582 l -4.310331,4.310331 c -1.050101,1.0501 -1.051632,2.760004 -0.0016,3.810104 l 4.311881,4.311881 c 1.0501,1.0501 2.760004,1.048568 3.810104,-0.0016 l 4.310331,-4.310331 c 1.050101,-1.0501 1.051632,-2.760003 0.0016,-3.810104 l -4.311881,-4.311881 c -0.525051,-0.525051 -1.215246,-0.78738 -1.90531,-0.787032 z m -0.001,3.67006 c 0.212908,10e-7 0.426777,0.08313 0.593762,0.250114 l 4.67155,4.672066 -3.994072,3.994072 c -0.709511,0.709507 -1.831418,0.709516 -2.54093,0 l -3.994071,-3.994072 4.672066,-4.672066 c 0.166987,-0.166987 0.378788,-0.250115 0.591695,-0.250114 z" /></g><g
         id="g5749"><g
           aria-label="open"
           id="text4464"
           style="font-size:20.1806px;letter-spacing:0px;word-spacing:0px;fill:#00323a;stroke-width:0.504515"><path
             d="m 90.998726,32.473265 2.315766,0 c 0.511242,0 0.928308,0.02691 1.251197,0.08072 0.32289,0.04036 0.605419,0.141263 0.847586,0.302709 0.242167,0.161445 0.423792,0.34307 0.544876,0.544876 0.121083,0.188353 0.215259,0.497789 0.282528,0.928308 0.10763,0.605418 0.161445,1.453003 0.161445,2.542755 0,1.089753 -0.0067,1.829708 -0.02018,2.219866 -0.01345,0.376705 -0.04036,0.780317 -0.08072,1.210836 -0.02691,0.430519 -0.08745,0.746682 -0.181625,0.948488 -0.08072,0.201806 -0.19508,0.410339 -0.343071,0.625599 -0.134537,0.201806 -0.316163,0.34307 -0.544876,0.423793 -0.497788,0.174898 -1.13684,0.262347 -1.917157,0.262347 h -0.04036 v -7.608086 -0.242167 c 0,-0.134537 -0.0067,-0.248894 -0.02018,-0.34307 -0.06727,-0.255621 -0.336343,-0.383431 -0.807224,-0.383431 l -1.448,0 z m -0.24717,0 v 7.608086 0.242167 c 0,0.134537 0.01345,0.248894 0.04036,0.34307 0.05381,0.255621 0.316161,0.383431 0.787044,0.383431 h 1.089752 v 1.513545 h -1.957518 c -0.511242,0 -0.928308,-0.02018 -1.251197,-0.06054 -0.32289,-0.05381 -0.605418,-0.161443 -0.847585,-0.32289 -0.242167,-0.161445 -0.423793,-0.336343 -0.544877,-0.524696 -0.121083,-0.201806 -0.221986,-0.517969 -0.302709,-0.948488 -0.09418,-0.605418 -0.141264,-1.453003 -0.141264,-2.542755 0,-1.089753 0.0067,-1.822981 0.02018,-2.199686 0.01345,-0.390158 0.03363,-0.800497 0.06054,-1.231016 0.04036,-0.430519 0.100902,-0.746682 0.181625,-0.948488 0.09418,-0.201806 0.208533,-0.403612 0.34307,-0.605418 0.147991,-0.21526 0.336344,-0.363251 0.565057,-0.443974 0.497788,-0.174898 1.13684,-0.262347 1.917157,-0.262347 z"
             style="-inkscape-font-specification:'Keania One'"
             id="path4017"
             sodipodi:nodetypes="cscsccscccccsccscsccccscsccscsccscccccsc" /><path
             d="m 101.8559,32.473265 2.31577,0 c 1.33192,0 2.1526,0.228713 2.46203,0.68614 0.14799,0.21526 0.26235,0.423793 0.34307,0.625599 0.0942,0.201806 0.15472,0.517969 0.18163,0.948488 0.0673,0.780317 0.1009,1.648082 0.1009,2.603297 0,0.955215 -0.007,1.648083 -0.0202,2.078602 -0.0135,0.417065 -0.0606,0.847585 -0.14127,1.291558 -0.0673,0.430519 -0.16144,0.746682 -0.28252,0.948488 -0.12109,0.188353 -0.30271,0.363251 -0.54488,0.524696 -0.24217,0.161445 -0.52469,0.269075 -0.84758,0.32289 -0.32289,0.04036 -0.73996,0.06054 -1.2512,0.06054 l -2.31577,0 v -1.513545 l 1.448,0 c 0.3498,0 0.57179,-0.04709 0.66596,-0.141264 0.10763,-0.09418 0.16145,-0.242167 0.16145,-0.443973 v -5.872554 c 0,-0.21526 -0.0538,-0.369978 -0.16145,-0.464154 -0.0942,-0.09418 -0.31616,-0.141264 -0.66596,-0.141264 l -1.448,0 z m -0.24717,14.590573 h -1.23101 c -0.591967,0 -1.042669,-0.147991 -1.352105,-0.443973 -0.295982,-0.282529 -0.443973,-0.652506 -0.443973,-1.109933 V 34.027171 c 0,-0.457427 0.147991,-0.827405 0.443973,-1.109933 0.309436,-0.295982 0.760138,-0.443973 1.352105,-0.443973 h 1.23101 z"
             style="-inkscape-font-specification:'Keania One'"
             id="path4019"
             sodipodi:nodetypes="cscccscccscsccscsscscccscsscscc" /><path
             d="m 112.44572,42.563564 h -0.0404 c -1.33192,0 -2.1526,-0.228713 -2.46204,-0.68614 -0.14799,-0.21526 -0.26907,-0.423793 -0.36325,-0.625599 -0.0807,-0.201806 -0.13453,-0.517969 -0.16144,-0.948488 -0.0673,-0.780317 -0.10091,-1.648082 -0.10091,-2.603297 0,-0.955215 0.007,-1.641356 0.0202,-2.058421 0.0135,-0.430519 0.0538,-0.861039 0.12109,-1.291559 0.0807,-0.443973 0.18162,-0.760135 0.30271,-0.948488 0.12108,-0.201806 0.3027,-0.383431 0.54487,-0.544876 0.24217,-0.161445 0.5247,-0.262348 0.84759,-0.302709 0.32289,-0.05381 0.73995,-0.08072 1.2512,-0.08072 h 0.0404 z m 5.36804,-3.188534 v 1.02921 c 0,1.439549 -0.73323,2.159324 -2.19969,2.159324 l -2.901,0 v -1.513545 l 1.448,0 c 0.28253,0 0.45742,-0.04036 0.52469,-0.121083 0.0673,-0.09418 0.10091,-0.255621 0.10091,-0.484335 v -0.645779 c 0,-0.201806 0.0202,-0.316163 0.0605,-0.34307 0.0538,-0.02691 0.0874,-0.04036 0.1009,-0.04036 0.0135,-0.01345 0.0471,-0.02018 0.1009,-0.02018 0.0673,-0.01345 0.11436,-0.02018 0.14127,-0.02018 h 2.62348 z m -5.10069,-6.901765 2.69919,0 c 0.92831,0 1.56064,0.181625 1.89698,0.544876 0.33635,0.363251 0.50452,0.9014 0.50452,1.614448 v 1.775893 c 0,1.210835 -0.65923,1.816253 -1.9777,1.816253 h -2.96655 v -1.513544 h 1.08975 c 0.32289,0 0.53815,-0.04036 0.64578,-0.121084 0.12109,-0.08072 0.18163,-0.235441 0.18163,-0.464154 v -1.533725 c 0,-0.228714 -0.0336,-0.383432 -0.10091,-0.464154 -0.0673,-0.09418 -0.24216,-0.141264 -0.52469,-0.141264 l -1.448,0 z"
             style="-inkscape-font-specification:'Keania One'"
             id="path4021"
             sodipodi:nodetypes="cscccscccscscccssccscsscccscccsssssccscsscscc" /><path
             d="m 123.12626,32.473265 3.18354,0 c 1.46645,0 2.19968,0.719775 2.19968,2.159324 v 7.930975 h -2.30059 c -0.21526,0 -0.39016,-0.07399 -0.52469,-0.221986 -0.13454,-0.147991 -0.20181,-0.343071 -0.20181,-0.585238 v -7.164112 c 0,-0.21526 -0.0538,-0.369978 -0.16144,-0.464154 -0.0942,-0.09418 -0.31617,-0.141264 -0.66596,-0.141264 l -1.52873,0 z m -3.17335,0 h 1.23101 c 0.59197,0 1.03594,0.147991 1.33192,0.443973 0.30944,0.282528 0.46416,0.652506 0.46416,1.109933 v 8.536393 h -2.30059 c -0.21526,0 -0.39016,-0.07399 -0.5247,-0.221986 -0.13453,-0.147991 -0.2018,-0.343071 -0.2018,-0.585238 z"
             style="-inkscape-font-specification:'Keania One'"
             id="path4023"
             sodipodi:nodetypes="csscsssscscccscscsssc" /></g><g
           aria-label="Dylan"
           id="text4494"
           style="font-size:20.1806px;letter-spacing:0px;word-spacing:0px;fill:#00323a;stroke-width:0.504515"><path
             d="m 112.10224,50.762329 0.0202,3.410522 c 0,1.600994 -0.20181,2.657112 -0.60542,3.168354 -0.40361,0.497788 -1.13683,0.746682 -2.19968,0.746682 l -3.3248,0 V 56.17073 l 1.85161,0 c 0.33635,0 0.55833,-0.04036 0.66596,-0.121084 0.10763,-0.08072 0.16145,-0.23544 0.16145,-0.464153 v -9.565605 c 0,-0.242167 -0.0538,-0.403611 -0.16145,-0.484334 -0.10763,-0.08072 -0.32961,-0.121083 -0.66596,-0.121083 l -1.85161,0 v -1.917157 l 3.5266,0 c 0.98213,0 1.66154,0.228713 2.03824,0.68614 0.39016,0.443973 0.58524,1.318466 0.58524,2.623478 z m -6.35689,7.345738 h -2.11896 c -0.44397,0 -0.73996,-0.07399 -0.88795,-0.221986 -0.14799,-0.161445 -0.22198,-0.470881 -0.22198,-0.928308 V 44.647608 c 0,-0.457427 0.074,-0.760136 0.22198,-0.908127 0.14799,-0.161445 0.44398,-0.242167 0.88795,-0.242167 h 2.11896 z"
             style="-inkscape-font-specification:'Keania One'"
             id="path4034"
             sodipodi:nodetypes="cccsccssssssccsccccscsscscc" /><path
             d="m 114.62481,47.997587 h 2.30059 c 0.21526,0 0.39016,0.074 0.5247,0.221987 0.13453,0.147991 0.2018,0.34307 0.2018,0.585237 v 7.164113 c 0,0.215259 0.0471,0.369977 0.14127,0.464154 0.10763,0.09418 0.33634,0.141264 0.68614,0.141264 h 1.26839 v 1.513545 h -2.9232 c -1.46646,0 -2.19969,-0.719775 -2.19969,-2.159324 z m 3.2289,11.381858 v 1.069572 c 0,0.228713 0.0336,0.383431 0.1009,0.464154 0.0673,0.09418 0.24217,0.141264 0.5247,0.141264 h 1.26839 v 1.513545 h -2.7214 c -1.46645,0 -2.19968,-0.719775 -2.19968,-2.159324 v -0.605418 c 0,-0.201806 0.0202,-0.316163 0.0605,-0.34307 0.0538,-0.02691 0.0874,-0.04709 0.1009,-0.06054 0.0135,0 0.0471,-0.0067 0.1009,-0.02018 h 0.14127 2.62348 z m 2.32077,-11.381858 h 1.23101 c 0.59197,0 1.03594,0.147991 1.33192,0.443973 0.30944,0.282529 0.46416,0.652506 0.46416,1.109933 v 11.482761 c 0,0.457427 -0.15472,0.827405 -0.46416,1.109933 -0.29598,0.295982 -0.73995,0.443973 -1.33192,0.443973 h -1.23101 z"
             style="-inkscape-font-specification:'Keania One'"
             id="path4036"
             sodipodi:nodetypes="csssscsccssccscsccssscccccccscsscscc" /><path
             d="m 129.8208,57.946623 q 0,0.141264 -0.1009,0.141264 h -2.03824 q -1.13011,0 -1.67499,-0.524696 -0.52469,-0.524695 -0.52469,-1.715351 V 43.517494 h 1.23101 q 0.88795,0 1.33192,0.443973 0.46416,0.423793 0.46416,1.109933 v 10.736079 q 0,0.625599 0.26234,0.706321 0.14127,0.06054 0.38343,0.06054 h 0.50452 q 0.16144,0 0.16144,0.141264 z"
             style="-inkscape-font-specification:'Keania One'"
             id="path4038" /><path
             d="m 136.29578,49.511132 h -1.26839 c -0.41707,0 -0.65251,0.074 -0.70632,0.221987 -0.0807,0.174899 -0.12108,0.423793 -0.12108,0.746682 v 5.125872 0.242167 c 0,0.134537 0.0135,0.248894 0.0404,0.34307 0.0538,0.255621 0.31615,0.383432 0.78704,0.383432 h 1.26839 v 1.513545 h -2.13616 c -0.51124,0 -0.9283,-0.02018 -1.25119,-0.06054 -0.32289,-0.05381 -0.60542,-0.161443 -0.84759,-0.32289 -0.24217,-0.161445 -0.42379,-0.336343 -0.54487,-0.524695 -0.12109,-0.201806 -0.22199,-0.517969 -0.30271,-0.948488 -0.0942,-0.605418 -0.14127,-1.453003 -0.14127,-2.542756 0,-1.089752 0.007,-1.82298 0.0202,-2.199685 0.0135,-0.390159 0.0336,-0.800498 0.0605,-1.231017 0.0403,-0.430519 0.10088,-0.746682 0.18163,-0.948488 0.0942,-0.201806 0.20853,-0.403612 0.34307,-0.605418 0.14799,-0.215259 0.33635,-0.36325 0.56506,-0.443973 0.49779,-0.174899 1.13684,-0.262348 1.91715,-0.262348 h 2.13616 z m 4.362,8.435491 c 0,0.09418 -0.0269,0.141264 -0.0807,0.141264 h -1.6548 c -0.75341,0 -1.31174,-0.174899 -1.67499,-0.524696 -0.3498,-0.349797 -0.5247,-0.92158 -0.5247,-1.715351 v -7.850253 h 0.8274 c 0.84759,0 1.4261,0.201806 1.73554,0.605418 0.30943,0.390159 0.46415,0.908127 0.46415,1.553906 v 5.650568 c 0,0.417066 0.0874,0.652506 0.26235,0.706321 0.0942,0.04036 0.22198,0.06054 0.38343,0.06054 h 0.1009 c 0.10763,0 0.16145,0.04709 0.16145,0.141264 z"
             style="-inkscape-font-specification:'Keania One'"
             id="path4040"
             sodipodi:nodetypes="cscscscsccscsccscccccsccssscscscsscssss" /><path
             d="m 145.42542,47.997587 3.18353,0 c 1.46646,0 2.19969,0.719775 2.19969,2.159324 v 7.930976 h -2.30059 c -0.21526,0 -0.39016,-0.074 -0.5247,-0.221987 -0.13453,-0.147991 -0.2018,-0.34307 -0.2018,-0.585237 V 50.11655 c 0,-0.215259 -0.0538,-0.369977 -0.16145,-0.464154 -0.0942,-0.09418 -0.31616,-0.141264 -0.66596,-0.141264 l -1.52872,0 z m -3.17336,0 h 1.23102 c 0.59197,0 1.03594,0.147991 1.33192,0.443973 0.30943,0.282529 0.46415,0.652506 0.46415,1.109933 v 8.536394 h -2.30058 c -0.21526,0 -0.39016,-0.074 -0.5247,-0.221987 -0.13454,-0.147991 -0.20181,-0.34307 -0.20181,-0.585237 z"
             style="-inkscape-font-specification:'Keania One'"
             id="path4042"
             sodipodi:nodetypes="csscsssscscccscscsssc" /></g></g></g></g></svg>
