<?xml version="1.0" encoding="UTF-8" standalone="no"?>
<!-- Created with Inkscape (http://www.inkscape.org/) -->

<svg
   width="210mm"
   height="100mm"
   viewBox="0 0 210 100"
   version="1.1"
   id="svg2088"
   inkscape:version="1.2.1 (9c6d41e410, 2022-07-14, custom)"
   sodipodi:docname="opendylan_minimal_dark.svg"
   inkscape:export-filename="opendylan_minimal_dark_transparent.png"
   inkscape:export-xdpi="116.93372"
   inkscape:export-ydpi="116.93372"
   xml:space="preserve"
   xmlns:inkscape="http://www.inkscape.org/namespaces/inkscape"
   xmlns:sodipodi="http://sodipodi.sourceforge.net/DTD/sodipodi-0.dtd"
   xmlns:xlink="http://www.w3.org/1999/xlink"
   xmlns="http://www.w3.org/2000/svg"
   xmlns:svg="http://www.w3.org/2000/svg"><sodipodi:namedview
     id="namedview2090"
     pagecolor="#505050"
     bordercolor="#eeeeee"
     borderopacity="1"
     inkscape:showpageshadow="0"
     inkscape:pageopacity="0"
     inkscape:pagecheckerboard="0"
     inkscape:deskcolor="#505050"
     inkscape:document-units="mm"
     showgrid="false"
     inkscape:zoom="1.3347001"
     inkscape:cx="356.25982"
     inkscape:cy="133.3633"
     inkscape:window-width="1920"
     inkscape:window-height="988"
     inkscape:window-x="0"
     inkscape:window-y="25"
     inkscape:window-maximized="1"
     inkscape:current-layer="layer1" /><defs
     id="defs2085" /><g
     inkscape:label="Layer 1"
     inkscape:groupmode="layer"
     id="layer1"><image
       width="111.21514"
       height="56.041992"
       preserveAspectRatio="none"
       xlink:href="opendylan_minimal_light_transparent.png"
       id="image3395"
       x="49.454903"
       y="22.27714" /><rect
       style="fill:#00323a;fill-opacity:1;stroke:none;stroke-width:60.5901;stroke-linecap:butt;stroke-linejoin:bevel;stroke-dasharray:none;stroke-opacity:1"
       id="rect3007"
       width="210"
       height="100"
       x="-4.7683716e-06"
       y="-1.4210855e-14"
       ry="0" /><g
       id="g2908"><g
         id="g2880"><path
           id="path1935"
           style="color:#000000;fill:#eff3cf;stroke-width:0.897453;stroke-linecap:round;stroke-linejoin:bevel"
           d="M 69.955937 37.811129 C 69.265871 37.810781 68.575674 38.073119 68.050627 38.598161 L 58.405221 48.243567 C 57.355122 49.293665 57.355123 51.005122 58.405221 52.055221 L 68.050627 61.700627 C 69.100726 62.750725 70.812181 62.750725 71.86228 61.700627 L 81.507686 52.055221 C 82.557784 51.005123 82.55677 49.294699 81.506653 48.2446 L 71.861247 38.599711 C 71.336196 38.074664 70.645999 37.811476 69.955937 37.811129 z M 67.021232 40.896729 L 73.047738 46.922717 L 73.725732 46.245239 C 74.559323 45.411615 75.925389 45.403738 76.757072 46.235421 L 79.053573 48.531921 C 79.885255 49.363606 79.876312 50.728636 79.042721 51.562227 L 76.725033 53.879399 C 75.891441 54.713022 74.52796 54.7209 73.696277 53.889217 L 73.115434 53.308374 L 67.021232 59.402576 L 59.03929 51.420117 C 58.329758 50.710585 58.329756 49.588208 59.03929 48.87867 L 67.021232 40.896729 z M 75.244503 46.692757 C 74.975687 46.694022 74.706172 46.800623 74.493644 47.013151 L 72.175956 49.330322 C 71.750887 49.755378 71.751879 50.408996 72.167688 50.824805 L 74.464189 53.121305 C 74.879997 53.537082 75.532065 53.536543 75.957121 53.111487 L 78.274809 50.794316 C 78.699865 50.36926 78.701469 49.715642 78.285661 49.299833 L 75.98916 47.003333 C 75.781256 46.795445 75.513318 46.691492 75.244503 46.692757 z " /><path
           id="path1941"
           style="color:#000000;fill:#eff3cf;stroke-width:0.897453;stroke-linecap:round;stroke-linejoin:bevel"
           d="M 79.292834 57.816626 C 78.688726 57.816626 78.084452 58.017703 77.59113 58.41969 L 81.452909 62.28147 C 82.332711 63.161269 82.332718 64.577694 81.452909 65.457503 L 76.630465 70.279948 L 77.387008 71.036491 C 78.437109 72.086592 80.14856 72.086592 81.198661 71.036491 L 85.508993 66.72616 C 86.559091 65.67606 86.559092 63.964607 85.508993 62.914506 L 81.198661 58.604175 C 80.673611 58.079124 79.983245 57.816626 79.292834 57.816626 z M 75.949886 60.041813 L 73.076676 62.914506 C 72.026576 63.964607 72.026575 65.676059 73.076676 66.72616 L 74.986637 68.635604 L 79.765157 63.857084 L 75.949886 60.041813 z " /><path
           id="path1947"
           style="color:#000000;fill:#eff3cf;stroke-width:0.897453;stroke-linecap:round;stroke-linejoin:bevel"
           d="M 91.579423 45.530037 C 90.889358 45.52969 90.199163 45.792028 89.674113 46.317069 L 82.412541 53.578642 C 81.362439 54.628744 81.362439 56.340193 82.412541 57.390295 L 89.674113 64.651868 C 90.724215 65.70197 92.434631 65.700438 93.484733 64.650317 L 100.74631 57.388745 C 101.79641 56.338644 101.79641 54.629777 100.74631 53.579675 L 93.484733 46.318103 C 92.959682 45.793052 92.269488 45.530385 91.579423 45.530037 z M 91.465218 46.887577 C 91.918845 46.887577 92.372829 47.059831 92.716821 47.403825 L 94.622648 49.309652 C 95.310648 49.997636 95.311668 51.125389 94.623682 51.813375 L 93.595321 52.841736 L 98.810506 58.056405 L 92.84963 64.015731 C 92.339956 64.525403 91.617271 64.669275 90.987728 64.446712 C 90.987367 64.446585 90.987055 64.446323 90.986694 64.446195 C 90.904762 64.41717 90.824502 64.382207 90.746399 64.340776 C 90.746192 64.340666 90.746089 64.340369 90.745882 64.340259 C 90.698072 64.314873 90.651289 64.28658 90.605322 64.256543 C 90.601427 64.253997 90.597318 64.251887 90.593437 64.249308 C 90.593121 64.249098 90.592719 64.249002 90.592403 64.248792 C 90.586661 64.244971 90.58106 64.2408 90.57535 64.236906 C 90.53175 64.207173 90.488761 64.175303 90.447192 64.141305 C 90.44682 64.141 90.446531 64.140576 90.446159 64.140271 C 90.422664 64.121024 90.399689 64.101454 90.376912 64.080843 C 90.376733 64.08068 90.376576 64.080489 90.376396 64.080326 C 90.353443 64.05954 90.330872 64.037903 90.3087 64.015731 L 84.711108 58.41814 L 89.810539 53.317159 L 88.306755 51.813375 C 87.618768 51.125388 87.618766 49.999189 88.306755 49.311202 L 90.214132 47.403825 C 90.558125 47.059831 91.011593 46.887577 91.465218 46.887577 z M 91.465218 47.776929 C 91.243399 47.776929 91.021901 47.864195 90.848201 48.037895 L 88.940824 49.944755 C 88.593445 50.292155 88.594975 50.830874 88.942375 51.178271 L 90.848201 53.084098 C 91.195603 53.431516 91.733803 53.433047 92.081201 53.085649 L 93.988578 51.178271 C 94.335978 50.830873 94.33598 50.291122 93.988578 49.943722 L 92.082751 48.037895 C 91.909053 47.864195 91.687037 47.776929 91.465218 47.776929 z " /><path
           id="path1967"
           style="color:#000000;fill:#eff3cf;stroke-linecap:round;stroke-linejoin:bevel"
           d="M 79.292834 28.474748 C 78.602424 28.474748 77.912059 28.737246 77.387008 29.262297 L 73.075126 33.573661 C 72.025024 34.623763 72.026556 36.33418 73.076676 37.384281 L 77.387008 41.694613 C 78.43711 42.744714 80.147009 42.745728 81.197111 41.695646 L 85.508993 37.384281 C 86.559093 36.33418 86.559093 34.622729 85.508993 33.572628 L 81.198661 29.262297 C 80.67361 28.737246 79.983245 28.474748 79.292834 28.474748 z M 79.292834 29.365133 C 79.750747 29.365133 80.208285 29.542643 80.563041 29.8974 L 84.873372 34.207731 C 85.582886 34.917243 85.584417 36.040699 84.874923 36.750212 L 84.345756 37.279378 L 80.202856 33.136479 C 79.698615 32.632249 78.886537 32.632239 78.382296 33.136479 L 74.239396 37.279378 L 73.710229 36.750212 C 73.000716 36.040699 73.000716 34.918796 73.710229 34.209281 L 78.022111 29.8974 C 78.376868 29.542643 78.834922 29.365133 79.292834 29.365133 z " /></g><g
         id="g2891"><path
           id="path1758"
           style="color:#000000;font-size:20.1806px;-inkscape-font-specification:'Keania One';letter-spacing:0px;word-spacing:0px;fill:#eff3cf;stroke:none;stroke-width:0.3;-inkscape-stroke:none"
           d="m 92.911384,32.485846 v 1.214913 h 0.938961 c 0.249011,0 0.454431,0.0311 0.6196,0.109554 0.165168,0.07845 0.28923,0.215011 0.33383,0.384473 l 0.0021,0.0098 v 0.0078 c 0.01488,0.104076 0.02119,0.223748 0.02119,0.363285 v 0.242363 7.443473 c 0.707946,-0.0096 1.311201,-0.08123 1.758032,-0.238229 0.200424,-0.07074 0.352877,-0.188508 0.470773,-0.365352 v -0.0021 h 0.0021 C 97.200708,41.448111 97.308169,41.249533 97.383979,41.06 l 0.0021,-0.0036 0.0021,-0.0041 c 0.07921,-0.169725 0.141629,-0.473417 0.167949,-0.894519 v -0.0021 -0.0036 c 0.04013,-0.428013 0.06677,-0.828084 0.0801,-1.201477 0.01333,-0.385351 0.01912,-1.125719 0.01912,-2.214852 0,-1.084812 -0.05321,-1.925462 -0.15813,-2.515609 v -0.0021 -0.0016 c -0.06573,-0.420206 -0.16174,-0.715966 -0.26155,-0.871218 v -0.0021 l -0.0021,-0.0021 c -0.107465,-0.179108 -0.272462,-0.34425 -0.500228,-0.496094 -0.221366,-0.147578 -0.479854,-0.241172 -0.782898,-0.279052 h -0.0021 -0.0041 c -0.310227,-0.05171 -0.720306,-0.0801 -1.226282,-0.0801 z m -0.906405,0.0155 c -0.707947,0.0096 -1.3112,0.08123 -1.758032,0.238228 -0.198827,0.07017 -0.35738,0.195861 -0.489893,0.388607 -0.129933,0.195049 -0.239872,0.388492 -0.330212,0.581877 v 0.0021 c -0.0695,0.176408 -0.130666,0.478909 -0.170015,0.898653 l 0.0021,-0.0041 c -0.02683,0.429256 -0.04706,0.838184 -0.06046,1.226798 -0.01328,0.371548 -0.0217,1.104014 -0.0217,2.193148 0,1.085429 0.04849,1.927833 0.14056,2.519743 0.07847,0.416414 0.178191,0.716741 0.281637,0.890385 5e-4,7e-4 0.0011,0.0014 0.0015,0.0021 0.107065,0.165787 0.269706,0.328288 0.498161,0.480591 0.222965,0.148645 0.484206,0.24788 0.789099,0.29869 0.312669,0.03878 0.721912,0.05891 1.226798,0.05891 h 1.808159 V 41.063713 H 92.98372 c -0.249013,0 -0.452527,-0.03172 -0.615466,-0.111104 -0.162939,-0.07938 -0.282337,-0.221778 -0.318327,-0.392741 -0.03004,-0.109777 -0.04496,-0.232993 -0.04496,-0.373104 v -0.241846 z" /><path
           id="path1764"
           style="color:#000000;font-size:20.1806px;-inkscape-font-specification:'Keania One';letter-spacing:0px;word-spacing:0px;fill:#eff3cf;stroke:none;stroke-width:0.3;-inkscape-stroke:none"
           d="m 101.78216,32.485846 c -0.56696,0 -0.97307,0.139086 -1.24798,0.402043 h -0.002 c -0.26673,0.25461 -0.39636,0.576932 -0.39636,1.002006 v 11.482503 c 0,0.425073 0.12963,0.747395 0.39636,1.002006 h 0.002 c 0.27491,0.262957 0.68102,0.402559 1.24798,0.402559 h 1.08004 V 32.485846 Z m 1.98645,0 v 1.214913 h 0.93947 c 0.36044,0 0.60588,0.02485 0.76585,0.181384 0.14794,0.131577 0.21084,0.334012 0.21084,0.572575 v 5.873027 c 0,0.226807 -0.0655,0.42321 -0.21084,0.552421 -0.15997,0.156534 -0.40541,0.183968 -0.76585,0.183968 h -0.93947 v 1.212846 h 1.8066 c 0.50489,0 0.91413,-0.02012 1.2268,-0.05891 0.30489,-0.05082 0.56613,-0.150047 0.7891,-0.29869 0.22845,-0.152304 0.39265,-0.314804 0.49971,-0.480591 0.10293,-0.172137 0.19847,-0.472809 0.26407,-0.892452 v -0.0021 -0.0021 c 0.0795,-0.437284 0.12529,-0.860053 0.13849,-1.269173 0.0135,-0.427053 0.0196,-1.117717 0.0196,-2.072225 0,-0.951692 -0.0329,-1.816993 -0.0997,-2.59209 v -0.0021 c -0.0263,-0.421102 -0.0888,-0.724791 -0.16795,-0.894519 l -0.002,-0.0036 -0.002,-0.0041 c -0.0758,-0.189531 -0.18534,-0.389661 -0.32814,-0.597379 -0.12673,-0.187348 -0.37366,-0.346547 -0.76378,-0.45527 -0.39012,-0.108725 -0.91669,-0.165881 -1.57407,-0.165881 z" /><path
           id="path1770"
           style="color:#000000;font-size:20.1806px;-inkscape-font-specification:'Keania One';letter-spacing:0px;word-spacing:0px;fill:#eff3cf;stroke:none;stroke-width:0.3;-inkscape-stroke:none"
           d="m 114.62582,32.485846 v 1.214913 h 0.93948 c 0.14959,0 0.27383,0.0099 0.38086,0.03876 0.10404,0.02801 0.19536,0.0773 0.25786,0.160197 0.11002,0.133994 0.13694,0.313192 0.13694,0.555005 v 1.53479 c 0,0.253441 -0.0731,0.4664 -0.24598,0.583944 -0.1651,0.12231 -0.39909,0.150378 -0.73277,0.150378 h -0.93947 v 1.212846 h 2.81636 c 0.63627,0 1.08994,-0.144917 1.38286,-0.413928 0.29292,-0.26901 0.44545,-0.673925 0.44545,-1.25212 v -1.775085 c 0,-0.689463 -0.16148,-1.184188 -0.46457,-1.511536 -0.28961,-0.312771 -0.87875,-0.498161 -1.78749,-0.498161 z m -0.92552,0.0072 c -0.44526,0.0044 -0.83471,0.02526 -1.11725,0.07235 h -0.004 -0.002 c -0.30305,0.03788 -0.56205,0.131992 -0.78341,0.279569 -0.22776,0.151844 -0.39226,0.316987 -0.49972,0.496094 v 0.0021 l -0.002,0.0015 c -0.0999,0.15539 -0.20222,0.45901 -0.28112,0.890902 v 0.0036 c -0.0659,0.423202 -0.10618,0.846701 -0.11938,1.26969 -0.0135,0.413374 -0.0196,1.100147 -0.0196,2.054655 0,0.951692 0.0329,1.814927 0.0997,2.590023 v 0.0021 0.0021 c 0.0264,0.421766 0.0834,0.727016 0.15245,0.900204 V 41.06 c 0.0896,0.19084 0.20556,0.388977 0.34778,0.595829 0.12673,0.187348 0.37314,0.34603 0.76326,0.454753 0.36301,0.101167 0.87027,0.147112 1.46503,0.154512 v -9.771496 z m 5.51749,6.86418 -5.2e-4,0.02481 5.2e-4,-5.17e-4 z m -2.62309,0.03049 c -0.002,0 -0.0476,0.0049 -0.11111,0.01757 l -0.0155,0.0021 h -0.0155 c -0.0106,0 -0.0116,-4.88e-4 -0.0176,0 l -0.0196,0.0217 h -0.047 c -0.002,0.001 -0.008,0.0035 -0.0114,0.0052 -10e-4,0.0043 -0.003,0.0086 -0.004,0.01602 -0.008,0.04229 -0.0119,0.115457 -0.0119,0.211357 v 0.646472 c 0,0.243417 -0.028,0.429081 -0.12867,0.569991 l -0.004,0.0062 -0.004,0.0036 c -0.0667,0.08003 -0.15679,0.1164 -0.26148,0.14056 -0.10469,0.02416 -0.22884,0.03514 -0.37724,0.03514 h -0.93948 v 1.213363 h 2.39262 c 0.70869,0 1.2142,-0.171227 1.54513,-0.496094 0.33094,-0.324867 0.50384,-0.819813 0.50384,-1.514119 v -0.8785 h -2.47271 z" /><path
           id="path1776"
           style="color:#000000;font-size:20.1806px;-inkscape-font-specification:'Keania One';letter-spacing:0px;word-spacing:0px;fill:#eff3cf;stroke:none;stroke-width:0.3;-inkscape-stroke:none"
           d="m 121.50706,32.485846 v 9.132776 c 0,0.21439 0.0551,0.366351 0.16226,0.484208 0.10776,0.118529 0.23304,0.17415 0.41393,0.17415 h 2.15026 v -8.387085 c 0,-0.423602 -0.13426,-0.742523 -0.41393,-0.997872 l -0.004,-0.0041 -0.002,-0.0016 c -0.26062,-0.260625 -0.65932,-0.400492 -1.22629,-0.400492 z m 3.53105,0 v 1.214913 h 1.02164 c 0.36043,0 0.60536,0.02486 0.76533,0.181384 0.14794,0.131578 0.21136,0.334014 0.21136,0.572575 v 7.163904 c 0,0.214389 0.0546,0.36635 0.16174,0.484208 0.10775,0.118529 0.23357,0.17415 0.41445,0.17415 h 2.15025 v -7.781437 c 0,-0.694307 -0.1729,-1.18667 -0.50384,-1.511536 -0.33094,-0.324867 -0.83644,-0.498161 -1.54513,-0.498161 z" /><path
           id="path1793"
           style="color:#000000;font-size:20.1806px;-inkscape-font-specification:'Keania One';letter-spacing:0px;word-spacing:0px;fill:#eff3cf;stroke:none;stroke-width:0.3;-inkscape-stroke:none"
           d="m 105.03054,43.511013 c -0.42579,0 -0.67971,0.08691 -0.77721,0.19327 l -0.002,0.0021 -0.002,0.0021 c -0.0934,0.09335 -0.17984,0.361285 -0.17984,0.802535 v 12.310876 c 0,0.439263 0.0837,0.711743 0.18345,0.822172 0.0961,0.09439 0.35246,0.177768 0.77773,0.177767 h 1.96836 v -14.31082 z m 2.87476,0 v 1.617472 h 1.34204 c 0.34834,0 0.58788,0.02466 0.75551,0.150379 0.16525,0.123923 0.22273,0.339193 0.22273,0.60358 v 9.566342 c 0,0.25224 -0.0607,0.462419 -0.22273,0.583943 -0.16763,0.125721 -0.40717,0.150379 -0.75551,0.150379 h -1.34204 v 1.616955 h 2.81637 c 1.03942,0 1.71899,-0.241608 2.08204,-0.689363 0.35642,-0.451471 0.57258,-1.485845 0.57258,-3.074231 l -0.0196,-3.410128 v -0.0021 l 0.0393,-3.954797 c 0,-1.290062 -0.2052,-2.13413 -0.54725,-2.523361 l -0.002,-0.0021 -0.002,-0.0021 c -0.33604,-0.408046 -0.96353,-0.630969 -1.92236,-0.630969 z" /><path
           id="path1799"
           style="color:#000000;font-size:20.1806px;-inkscape-font-specification:'Keania One';letter-spacing:0px;word-spacing:0px;fill:#eff3cf;stroke:none;stroke-width:0.3;-inkscape-stroke:none"
           d="m 116.1787,48.010997 5.2e-4,7.781437 c 0,0.694305 0.17445,1.18667 0.50539,1.511536 0.33094,0.324866 0.83437,0.496093 1.54306,0.496093 h 2.59571 v -1.212846 h -0.93948 c -0.36326,10e-7 -0.61673,-0.03056 -0.78496,-0.177767 l -0.004,-0.0036 -0.004,-0.0041 c -0.13455,-0.134582 -0.18552,-0.333372 -0.18552,-0.570508 v -7.163904 c 0,-0.214389 -0.0546,-0.366351 -0.16175,-0.484208 -0.10775,-0.118525 -0.23356,-0.172082 -0.41444,-0.172082 z m 5.54902,0 v 14.291117 h 1.0821 c 0.56696,0 0.96359,-0.139866 1.22421,-0.400492 l 0.004,-0.0036 0.002,-0.0021 c 0.27967,-0.255347 0.41599,-0.574269 0.41599,-0.997872 V 49.415562 c 0,-0.423601 -0.13632,-0.74459 -0.41599,-0.999939 l -0.002,-0.0021 -0.004,-0.0021 c -0.26062,-0.260627 -0.65725,-0.400492 -1.22421,-0.400492 z m -5.22087,11.3807 c -0.0225,0.0062 -0.0461,0.0087 -0.0661,0.01189 -0.0132,0.0084 -0.0261,0.01744 -0.0398,0.02687 -0.003,0.0052 -0.005,0.01319 -0.007,0.02377 -0.008,0.04232 -0.0139,0.115447 -0.0139,0.211356 v 0.605131 c 0,0.694307 0.17497,1.188733 0.50591,1.513603 0.33094,0.324867 0.83644,0.496094 1.54513,0.496094 h 2.39262 v -1.212846 h -0.93948 c -0.1496,0 -0.27589,-0.012 -0.38292,-0.04082 -0.10553,-0.02841 -0.19743,-0.07709 -0.25993,-0.162264 -0.10791,-0.133703 -0.13281,-0.312404 -0.13281,-0.552421 v -0.919841 h -2.47427 -0.12712 z m -0.12764,0.05271 c -0.007,0.0039 -0.0131,0.0081 -0.0207,0.01189 l 0.0155,-0.0078 c 0.003,-0.0018 0.003,-0.0025 0.005,-0.0041 z" /><path
           id="path1805"
           style="color:#000000;font-size:20.1806px;-inkscape-font-specification:'Keania One';letter-spacing:0px;word-spacing:0px;fill:#eff3cf;stroke:none;stroke-width:0.3;-inkscape-stroke:none"
           d="m 127.03644,43.53065 v 12.179618 c 0,0.770876 0.17104,1.297832 0.48007,1.607654 0.32599,0.313171 0.83902,0.482141 1.56838,0.482141 h 1.99058 v -1.213879 c -5.3e-4,5.5e-4 -0.003,10e-4 -0.0119,10e-4 h -0.50385 c -0.16935,0 -0.31084,-0.02075 -0.43149,-0.07028 -0.13669,-0.04434 -0.23784,-0.161426 -0.29094,-0.304374 -0.0538,-0.14482 -0.0744,-0.322035 -0.0744,-0.541052 V 44.935215 c 0,-0.423602 -0.13632,-0.744591 -0.41599,-0.999939 l -0.002,-0.0021 -0.002,-0.0021 c -0.26061,-0.260625 -0.65932,-0.400492 -1.22628,-0.400492 z" /><path
           id="path1811"
           style="color:#000000;font-size:20.1806px;-inkscape-font-specification:'Keania One';letter-spacing:0px;word-spacing:0px;fill:#eff3cf;stroke:none;stroke-width:0.3;-inkscape-stroke:none"
           d="m 135.56356,48.010997 c -0.76911,0 -1.39241,0.08696 -1.86707,0.253731 -0.19796,0.06987 -0.35823,0.193683 -0.49041,0.384989 l -0.002,0.0021 c -0.12833,0.192726 -0.23638,0.385091 -0.32608,0.576193 -1.5e-4,4e-4 1.4e-4,0.0017 0,0.0021 -0.0698,0.175096 -0.13248,0.480373 -0.17208,0.900203 v 0.0041 c -0.0266,0.427771 -0.0471,0.835278 -0.0605,1.222665 -0.0135,0.371542 -0.0191,1.106083 -0.0191,2.195215 0,1.082912 0.0468,1.921845 0.13849,2.513541 0.0786,0.419414 0.17719,0.722142 0.28112,0.896586 0,7e-4 0.002,0.0014 0.002,0.0021 0.10705,0.165786 0.27176,0.326221 0.50022,0.478524 0.22297,0.148646 0.48421,0.24788 0.7891,0.29869 0.31267,0.03878 0.72139,0.05839 1.22628,0.05839 h 1.80661 v -1.212846 h -0.93948 c -0.24902,0 -0.45201,-0.03172 -0.61495,-0.111104 -0.16245,-0.07914 -0.28192,-0.218334 -0.31832,-0.388607 -1.1e-4,-6e-4 1.1e-4,-0.0016 0,-0.0021 -0.0304,-0.110208 -0.0434,-0.234328 -0.0434,-0.375171 v -0.242362 -5.124752 c 0,-0.332112 0.0394,-0.596595 0.13281,-0.802535 0.0495,-0.129321 0.1706,-0.210258 0.31057,-0.254248 0.14189,-0.04459 0.3159,-0.06253 0.5333,-0.06253 h 0.93948 v -1.212846 z m 2.71302,0 v 7.699271 c 0,0.770876 0.17156,1.297832 0.48059,1.607654 0.32598,0.31317 0.83901,0.482141 1.56838,0.482141 h 1.58595 v -1.212846 c -0.003,-6.97e-4 0.004,0 -0.0119,0 h -0.0997 c -0.16934,0 -0.31085,-0.02075 -0.4315,-0.07028 -0.13668,-0.04434 -0.23577,-0.161432 -0.28887,-0.304374 -0.0538,-0.14482 -0.0765,-0.322035 -0.0765,-0.541052 v -5.650818 c 0,-0.621819 -0.14711,-1.102304 -0.4315,-1.460893 v -0.0021 h -0.002 c -0.26919,-0.351129 -0.79163,-0.546736 -1.61541,-0.546736 z" /><path
           id="path1817"
           style="color:#000000;font-size:20.1806px;-inkscape-font-specification:'Keania One';letter-spacing:0px;word-spacing:0px;fill:#eff3cf;stroke:none;stroke-width:0.3;-inkscape-stroke:none"
           d="m 143.80595,48.010997 v 9.132776 c 0,0.214389 0.0551,0.366868 0.16227,0.484725 0.10776,0.118524 0.23305,0.171565 0.41393,0.171565 h 2.15025 v -8.384501 c 0,-0.423601 -0.13426,-0.74459 -0.41392,-0.999939 l -0.004,-0.0021 -0.002,-0.0021 c -0.26062,-0.260626 -0.65776,-0.400492 -1.22473,-0.400492 z m 3.53106,0 v 1.212846 h 1.02164 c 0.36043,0 0.60536,0.02744 0.76533,0.183968 0.14704,0.131616 0.21084,0.334207 0.21084,0.572058 v 7.163904 c 0,0.214388 0.0572,0.366868 0.16433,0.484725 0.10775,0.118524 0.23098,0.171565 0.41186,0.171565 h 2.15077 v -7.77937 c 0,-0.694306 -0.1729,-1.188736 -0.50384,-1.513603 -0.33093,-0.324865 -0.83644,-0.496093 -1.54513,-0.496093 z" /></g></g></g></svg>
