<?xml version="1.0" encoding="UTF-8" standalone="no"?>
<!-- Created with Inkscape (http://www.inkscape.org/) -->

<svg
   width="210mm"
   height="100mm"
   viewBox="0 0 210 100"
   version="1.1"
   id="svg2088"
   inkscape:version="1.2.1 (9c6d41e410, 2022-07-14, custom)"
   sodipodi:docname="opendylan_minimal_light.svg"
   inkscape:export-filename="../../opendylan logo big_gap/minimal/opendylan_minimal_light_transparent.png"
   inkscape:export-xdpi="122"
   inkscape:export-ydpi="122"
   xml:space="preserve"
   xmlns:inkscape="http://www.inkscape.org/namespaces/inkscape"
   xmlns:sodipodi="http://sodipodi.sourceforge.net/DTD/sodipodi-0.dtd"
   xmlns:xlink="http://www.w3.org/1999/xlink"
   xmlns="http://www.w3.org/2000/svg"
   xmlns:svg="http://www.w3.org/2000/svg"><sodipodi:namedview
     id="namedview2090"
     pagecolor="#505050"
     bordercolor="#eeeeee"
     borderopacity="1"
     inkscape:showpageshadow="0"
     inkscape:pageopacity="0"
     inkscape:pagecheckerboard="0"
     inkscape:deskcolor="#505050"
     inkscape:document-units="mm"
     showgrid="false"
     inkscape:zoom="1.5878225"
     inkscape:cx="404.6422"
     inkscape:cy="279.62823"
     inkscape:window-width="1920"
     inkscape:window-height="988"
     inkscape:window-x="0"
     inkscape:window-y="25"
     inkscape:window-maximized="1"
     inkscape:current-layer="layer1" /><defs
     id="defs2085" /><g
     inkscape:label="Layer 1"
     inkscape:groupmode="layer"
     id="layer1"><image
       width="106.59673"
       height="53.714752"
       preserveAspectRatio="none"
       xlink:href="opendylan_minimal_light_transparent.png"
       id="image3777"
       x="51.701633"
       y="23.142624" /><rect
       style="fill:#ffffff;fill-opacity:1;stroke:none;stroke-width:60.7705;stroke-linecap:butt;stroke-linejoin:bevel;stroke-dasharray:none;stroke-opacity:1"
       id="rect3007"
       width="210"
       height="100.59627"
       x="-4.7683716e-06"
       y="-1.4210855e-14"
       ry="0" /><g
       id="g5479"
       transform="translate(1.4240748,-0.17890796)"><text
         xml:space="preserve"
         style="font-style:normal;font-weight:normal;font-size:20.1806px;line-height:1.25;font-family:sans-serif;letter-spacing:0px;word-spacing:0px;fill:#00323a;fill-opacity:1;stroke:none;stroke-width:0.504515"
         x="101.08363"
         y="58.087887"
         id="text4468"><tspan
           sodipodi:role="line"
           style="font-style:normal;font-variant:normal;font-weight:normal;font-stretch:normal;font-family:'Keania One';-inkscape-font-specification:'Keania One';fill:#00323a;fill-opacity:1;stroke-width:0.504515"
           x="101.08363"
           y="58.087887"
           id="tspan4466">Dylan</tspan></text><g
         id="g5743"
         transform="matrix(1.0249764,0,0,1.0249764,-1.3871038,-1.2532823)"><path
           id="path5544"
           style="color:#000000;fill:#00323a;stroke-width:0.897453;stroke-linecap:round;stroke-linejoin:bevel;-inkscape-stroke:none"
           d="m 68.681724,37.840692 c -0.68972,0 -1.37923,0.262498 -1.904277,0.787549 l -9.645406,9.645406 c -1.050099,1.050099 -1.05163,2.760521 -0.0016,3.81062 l 9.645406,9.645406 c 1.050099,1.050099 2.761554,1.050099 3.811653,0 l 9.645406,-9.645406 c 1.050098,-1.050099 1.049084,-2.760521 -0.001,-3.81062 L 70.586517,38.628241 C 70.061466,38.10319 69.37144,37.840692 68.681724,37.840692 Z m -2.934705,3.086116 5.987748,6.063196 -1.601452,1.601453 c -0.833592,0.83359 -0.839938,2.198624 -0.0083,3.030306 l 1.61954,1.619022 -5.998601,6.188253 -7.979874,-7.979875 c -0.709514,-0.709509 -0.709514,-1.831936 0,-2.541446 z m 8.224304,5.794995 c 0.268126,-0.0013 0.535203,0.102688 0.743107,0.310576 l 2.296501,2.2965 c 0.415808,0.41581 0.415787,1.067877 -0.0093,1.492933 l -2.319238,2.318721 c -0.425057,0.425057 -1.077124,0.425594 -1.492932,0.0098 L 72.500097,52.460969 70.89296,50.853832 c -0.02599,-0.02599 -0.05013,-0.05289 -0.07286,-0.08062 -0.02273,-0.02772 -0.04409,-0.05604 -0.06356,-0.08527 -0.01947,-0.02923 -0.03753,-0.05941 -0.05374,-0.08992 -0.01621,-0.03051 -0.03046,-0.06146 -0.04341,-0.09302 -0.01295,-0.03156 -0.02443,-0.06373 -0.03411,-0.09612 -0.0097,-0.03239 -0.01737,-0.06519 -0.02377,-0.09819 -0.0064,-0.03299 -0.01135,-0.06637 -0.01447,-0.09974 -0.0031,-0.03337 -0.0048,-0.06674 -0.0047,-0.100252 1.62e-4,-0.03352 0.0022,-0.06681 0.0057,-0.100252 0.0034,-0.03344 0.0082,-0.06712 0.01499,-0.100253 0.0067,-0.03313 0.01529,-0.0661 0.02532,-0.0987 0.01003,-0.03261 0.02181,-0.06478 0.03514,-0.09663 0.01333,-0.03185 0.02832,-0.06318 0.04496,-0.09405 0.01664,-0.03087 0.03484,-0.06129 0.05478,-0.09095 0.01994,-0.02966 0.04134,-0.05859 0.0646,-0.08682 0.02325,-0.02823 0.04836,-0.0556 0.07493,-0.08216 l 1.596801,-1.596802 0.72192,-0.72192 c 0.212528,-0.212526 0.4817,-0.319129 0.749825,-0.320394 z" /><path
           id="path5582"
           style="color:#000000;fill:#00323a;stroke-linecap:round;stroke-linejoin:bevel;-inkscape-stroke:none"
           d="m 77.488938,57.316506 c -0.690411,0 -1.380776,0.262498 -1.905827,0.787548 l -4.310331,4.310332 c -1.050102,1.050102 -1.050101,2.762069 0,3.81217 l 4.310331,4.310331 c 1.050095,1.050095 2.761552,1.050102 3.811654,0 l 4.310331,-4.310331 c 1.050101,-1.050101 1.050095,-2.762075 0,-3.81217 l -4.310331,-4.310332 c -0.525051,-0.52505 -1.215417,-0.787549 -1.905827,-0.787548 z m 0,0.890901 c 0.457912,0 0.915967,0.177511 1.270723,0.532268 l 4.310332,4.310331 c 0.70951,0.70951 0.710521,1.832967 0.001,2.54248 l -4.310331,4.310331 c -0.709513,0.709514 -1.83297,0.707984 -2.542481,-0.0015 l -0.438732,-0.438733 4.187341,-4.187341 c 1.05008,-1.0501 1.050083,-2.762082 0,-3.81217 l -3.131592,-3.130559 c 0.210145,-0.08329 0.431826,-0.125057 0.653707,-0.125057 z m -3.024622,2.286166 2.861841,2.863908 -3.825606,3.826123 -1.592668,-1.592668 c -0.709513,-0.709513 -0.709513,-1.831416 0,-2.54093 z" /><path
           id="path5568"
           style="color:#000000;fill:#00323a;stroke-width:0.897453;stroke-linecap:round;stroke-linejoin:bevel;-inkscape-stroke:none"
           d="m 89.246877,45.559084 c -0.690066,-3.48e-4 -1.38026,0.261991 -1.905311,0.787032 l -7.261572,7.261572 c -1.050098,1.050098 -1.050097,2.761555 0,3.811654 l 7.261572,7.261572 c 1.050099,1.050099 2.760006,1.048568 3.810104,-0.0015 l 7.262089,-7.261573 c 1.050099,-1.050099 1.050099,-2.75897 0,-3.809069 L 91.15167,46.347149 c -0.525051,-0.525047 -1.214731,-0.787718 -1.904793,-0.788065 z m -0.114205,2.246891 c 0.221817,0 0.443833,0.08727 0.617533,0.260966 l 1.905827,1.905827 c 0.3474,0.3474 0.347398,0.88715 0,1.23455 L 90.6039,52.25945 89.750205,53.113145 c -0.02171,0.02171 -0.04406,0.04198 -0.06718,0.06098 -0.02312,0.019 -0.04697,0.03694 -0.07131,0.05323 -0.02434,0.01628 -0.04904,0.03087 -0.07441,0.04444 -0.02538,0.01357 -0.05129,0.02583 -0.07752,0.03669 -0.02622,0.01086 -0.05322,0.02028 -0.0801,0.02842 -0.02688,0.0081 -0.05378,0.01524 -0.08113,0.02067 -0.02735,0.0054 -0.05505,0.0092 -0.08268,0.01189 -0.02763,0.0027 -0.05496,0.0041 -0.08268,0.0041 -0.02772,0 -0.05557,-0.0014 -0.0832,-0.0041 -0.02763,-0.0027 -0.05533,-0.0065 -0.08268,-0.01189 -0.02735,-0.0054 -0.05425,-0.01253 -0.08113,-0.02067 -0.02688,-0.0081 -0.05388,-0.01757 -0.0801,-0.02842 -0.02622,-0.01086 -0.05214,-0.02312 -0.07752,-0.03669 -0.02537,-0.01357 -0.05007,-0.02816 -0.07441,-0.04444 -0.02434,-0.01629 -0.04819,-0.03423 -0.07131,-0.05323 -0.02312,-0.019 -0.04547,-0.03927 -0.06718,-0.06098 l -0.402559,-0.402043 -1.503785,-1.503784 c -0.347398,-0.3474 -0.347397,-0.887153 0,-1.23455 l 1.906344,-1.905827 c 0.1737,-0.1737 0.395198,-0.260966 0.617017,-0.260966 z m 2.130619,5.06429 5.215185,5.213636 -5.960876,5.960876 c -0.709513,0.709516 -1.831419,0.709515 -2.54093,0 l -5.599658,-5.599658 5.10098,-5.098914 0.402043,0.402043 c 0.687992,0.687992 1.817287,0.687986 2.505273,0 z" /><path
           id="path5556"
           style="color:#000000;fill:#00323a;stroke-width:0.897453;stroke-linecap:round;stroke-linejoin:bevel;-inkscape-stroke:none"
           d="m 77.489455,29.032961 c -0.690066,3.47e-4 -1.379743,0.263523 -1.904794,0.788582 l -4.310331,4.310331 c -1.050101,1.0501 -1.051632,2.760004 -0.0016,3.810104 l 4.311881,4.311881 c 1.0501,1.0501 2.760004,1.048568 3.810104,-0.0016 l 4.310331,-4.310331 c 1.050101,-1.0501 1.051632,-2.760003 0.0016,-3.810104 l -4.311881,-4.311881 c -0.525051,-0.525051 -1.215246,-0.78738 -1.90531,-0.787032 z m -0.001,3.67006 c 0.212908,10e-7 0.426777,0.08313 0.593762,0.250114 l 4.67155,4.672066 -3.994072,3.994072 c -0.709511,0.709507 -1.831418,0.709516 -2.54093,0 l -3.994071,-3.994072 4.672066,-4.672066 c 0.166987,-0.166987 0.378788,-0.250115 0.591695,-0.250114 z" /></g><g
         id="g5749"><text
           xml:space="preserve"
           style="font-style:normal;font-weight:normal;font-size:20.1806px;line-height:1.25;font-family:sans-serif;letter-spacing:0px;word-spacing:0px;fill:#00323a;fill-opacity:1;stroke:none;stroke-width:0.504515"
           x="86.594353"
           y="42.563564"
           id="text4464"><tspan
             sodipodi:role="line"
             style="font-style:normal;font-variant:normal;font-weight:normal;font-stretch:normal;font-family:'Keania One';-inkscape-font-specification:'Keania One';fill:#00323a;fill-opacity:1;stroke-width:0.504515"
             x="86.594353"
             y="42.563564"
             id="tspan4462">open</tspan></text><text
           xml:space="preserve"
           style="font-style:normal;font-weight:normal;font-size:20.1806px;line-height:1.25;font-family:sans-serif;letter-spacing:0px;word-spacing:0px;fill:#00323a;fill-opacity:1;stroke:none;stroke-width:0.504515"
           x="101.08363"
           y="58.087887"
           id="text4494"><tspan
             sodipodi:role="line"
             style="font-style:normal;font-variant:normal;font-weight:normal;font-stretch:normal;font-family:'Keania One';-inkscape-font-specification:'Keania One';fill:#00323a;fill-opacity:1;stroke-width:0.504515"
             x="101.08363"
             y="58.087887"
             id="tspan4492">Dylan</tspan></text></g></g></g></svg>
